<?xml version="1.0" encoding="UTF-8"?>
<svg width="20px" height="19px" viewBox="0 0 20 19" version="1.1" xmlns="http://www.w3.org/2000/svg" xmlns:xlink="http://www.w3.org/1999/xlink">
    <!-- Generator: Sketch 44.1 (41455) - http://www.bohemiancoding.com/sketch -->
    <title>email</title>
    <desc>Created with Sketch.</desc>
    <defs></defs>
    <g id="Page-1" stroke="none" stroke-width="1" fill="none" fill-rule="evenodd">
        <g id="email" fill-rule="nonzero" fill="#C3C3C3">
            <path d="M19.8447241,7.69977925 L19.8447682,7.6997351 L17.2918322,6.00724062 L17.2918322,0.350110375 C17.2918322,0.167240618 17.1435762,0.0189845475 16.9607064,0.0189845475 L3.03178808,0.0189845475 C2.84891832,0.0189845475 2.70066225,0.167240618 2.70066225,0.350110375 L2.70066225,6.00763797 L0.14816777,7.6997351 L0.148211921,7.6998234 C0.0589403974,7.759117 -2.84217094e-14,7.86048565 -2.84217094e-14,7.97571744 L-2.84217094e-14,18.2300221 C-2.84217094e-14,18.4128918 0.148256071,18.5611479 0.331125828,18.5611479 L19.6618102,18.5611479 C19.8446799,18.5611479 19.992936,18.4128918 19.992936,18.2300221 L19.992936,7.97571744 C19.992936,7.86048565 19.9339956,7.759117 19.8447241,7.69977925 L19.8447241,7.69977925 Z M2.70066225,8.85779249 L1.66203091,8.30684327 L2.70066225,8.30684327 L2.70066225,8.85779249 Z M0.662251656,8.52618102 L8.27704194,12.5654746 L0.662251656,17.6130243 L0.662251656,8.52618102 Z M9.99633554,12.2202649 L18.5630905,17.8988962 L1.42962472,17.8988962 L9.99633554,12.2202649 L9.99633554,12.2202649 Z M11.7157616,12.5655188 L19.3306402,8.52618102 L19.3306402,17.6132009 L11.7157616,12.5655188 L11.7157616,12.5655188 Z M17.2918322,8.30684327 L18.3309492,8.30684327 L17.2918322,8.85801325 L17.2918322,8.30684327 Z M18.5630905,7.64459161 L17.2918322,7.64459161 L17.2918322,6.801766 L18.5630905,7.64459161 Z M16.6295806,0.681236203 L16.6295806,9.20931567 L11.0875497,12.1490949 L10.1792494,11.5470199 C10.0683885,11.4735099 9.92423841,11.4735099 9.81337748,11.5470199 L8.90520971,12.1490066 L3.36291391,9.20909492 L3.36291391,0.681236203 L16.6295806,0.681236203 Z M2.70066225,7.64459161 L1.42993377,7.64459161 L2.70066225,6.80220751 L2.70066225,7.64459161 Z" id="Shape"></path>
            <path d="M9.99624724,8.72719647 L12.6343929,8.72719647 C12.8172627,8.72719647 12.9655188,8.5789404 12.9655188,8.39607064 C12.9655188,8.21320088 12.8172627,8.06494481 12.6343929,8.06494481 L9.99624724,8.06494481 C8.72415011,8.06494481 7.68922737,7.03002208 7.68922737,5.75792494 L7.68922737,5.66022075 C7.68922737,4.38812362 8.72415011,3.35320088 9.99624724,3.35320088 C11.2683444,3.35320088 12.3032671,4.38812362 12.3032671,5.66022075 L12.3032671,5.90450331 C12.3032671,6.17986755 12.0792494,6.40392936 11.8038411,6.40392936 C11.5284327,6.40392936 11.304415,6.1799117 11.304415,5.90450331 L11.304415,5.44039735 C11.304415,4.65169978 10.6627815,4.01002208 9.87408389,4.01002208 C9.08538631,4.01002208 8.44375276,4.65165563 8.44375276,5.44039735 C8.44375276,6.22909492 9.08538631,6.87072848 9.87408389,6.87072848 C10.2347461,6.87072848 10.564415,6.73629139 10.8162472,6.51523179 C11.0212804,6.84560706 11.3871965,7.06613687 11.8038411,7.06613687 C12.4443709,7.06613687 12.9655188,6.54503311 12.9655188,5.90445916 L12.9655188,5.6601766 C12.9655188,4.02291391 11.6335099,2.69090508 9.99624724,2.69090508 C8.35898455,2.69090508 7.02697572,4.02291391 7.02697572,5.6601766 L7.02697572,5.75788079 C7.02697572,7.39518764 8.35898455,8.72719647 9.99624724,8.72719647 L9.99624724,8.72719647 Z M9.87408389,6.20847682 C9.45055188,6.20847682 9.10600442,5.86392936 9.10600442,5.44039735 C9.10600442,5.01686534 9.45059603,4.67227373 9.87408389,4.67227373 C10.2975717,4.67227373 10.6421634,5.01686534 10.6421634,5.44039735 C10.6421634,5.86392936 10.2976159,6.20847682 9.87408389,6.20847682 Z" id="Shape"></path>
        </g>
    </g>
</svg>