<svg width="142px" height="156px" viewBox="0 0 142 156" version="1.1" xmlns="http://www.w3.org/2000/svg" xmlns:xlink="http://www.w3.org/1999/xlink">
    <g id="Page-1" stroke="none" stroke-width="1" fill="none" fill-rule="evenodd" fill-opacity="0.701370018">
        <g id="ESPERLUETTE_B" fill="#FFFFFF">
            <path d="M53.804,59.887 C53.804,52.948 49.446,48.703 42.487,48.703 C35.514,48.703 30.304,53.272 30.304,59.887 C30.304,67.593 38.997,73.118 41.963,76.269 C45.801,73.118 53.804,68.078 53.804,59.887 Z M36.56,96.429 C32.923,98.799 23.503,104.459 23.503,114.554 C23.503,124.003 31.511,130.299 41.092,130.299 C51.366,130.299 57.646,124.316 60.238,121.643 L36.56,96.429 Z M83.046,145.263 L73.301,135.195 C68.079,139.603 59.555,146.852 39.707,146.852 C15.504,146.852 0,135.656 0,116.912 C0,97.682 18.98,88.868 25.426,85.242 C22.123,81.772 9.403,72.01 9.403,60.2 C9.403,43.489 27.157,33.576 43.533,33.576 C60.939,33.576 74.689,42.871 74.689,58.626 C74.689,73.269 57.799,83.361 52.581,87.143 L71.203,106.995 C78.35,94.702 75.391,85.884 78.35,85.884 C79.047,85.884 79.573,86.028 80.262,86.193 L92.978,89.345 C94.71,89.819 95.057,90.753 95.057,91.861 C95.057,101.469 87.394,116.912 84.617,120.686 L96.967,134.24 C96.967,134.24 115.468,151.292 141.732,151.68 C141.732,151.68 105.722,164.822 83.046,145.263 Z M82.114,77.534 C82.114,77.534 72.466,62.289 106.423,38.109 C140.375,13.909 132.348,0.094 132.348,0.094 C132.348,0.094 157.812,43.91 82.114,77.534 Z" id="Fill-3"></path>
        </g>
    </g>
</svg>