<?xml version="1.0" encoding="UTF-8"?>
<svg width="16px" height="19px" viewBox="0 0 16 19" version="1.1" xmlns="http://www.w3.org/2000/svg" xmlns:xlink="http://www.w3.org/1999/xlink">
    <!-- Generator: Sketch 44.1 (41455) - http://www.bohemiancoding.com/sketch -->
    <title>locked</title>
    <desc>Created with Sketch.</desc>
    <defs></defs>
    <g id="Page-1" stroke="none" stroke-width="1" fill="none" fill-rule="evenodd">
        <g id="locked" fill-rule="nonzero" fill="#C3C3C3">
            <path d="M13.3703704,7.0767963 L13.3703704,5.10185185 C13.3703704,2.2887963 10.8447778,0 7.74074074,0 C4.6367037,0 2.11111111,2.2887963 2.11111111,5.10185185 L2.11111111,7.0767963 C0.914462963,7.28298148 0,8.32587037 0,9.58092593 L0,16.4568148 C0,17.8589444 1.14105556,19 2.54353704,19 L12.9379444,19 C14.3404259,19 15.4814815,17.8589444 15.4814815,16.456463 L15.4814815,9.58057407 C15.4814815,8.32587037 14.5670185,7.28298148 13.3703704,7.0767963 Z M2.81481481,5.10185185 C2.81481481,2.67653704 5.02444444,0.703703704 7.74074074,0.703703704 C10.457037,0.703703704 12.6666667,2.67653704 12.6666667,5.10185185 L12.6666667,7.03703704 L2.81481481,7.03703704 L2.81481481,5.10185185 Z M14.7777778,16.456463 C14.7777778,17.4708519 13.9523333,18.2962963 12.9379444,18.2962963 L2.54353704,18.2962963 C1.52914815,18.2962963 0.703703704,17.4708519 0.703703704,16.456463 L0.703703704,9.58057407 C0.703703704,8.56618519 1.52914815,7.74074074 2.54353704,7.74074074 L12.9379444,7.74074074 C13.9523333,7.74074074 14.7777778,8.56618519 14.7777778,9.58057407 L14.7777778,16.456463 Z" id="Shape"></path>
            <path d="M7.74074074,9.85185185 C6.96455556,9.85185185 6.33333333,10.4830741 6.33333333,11.2592593 L6.33333333,13.3703704 C6.33333333,14.1465556 6.96455556,14.7777778 7.74074074,14.7777778 C8.51692593,14.7777778 9.14814815,14.1465556 9.14814815,13.3703704 L9.14814815,11.2592593 C9.14814815,10.4830741 8.51692593,9.85185185 7.74074074,9.85185185 Z M8.44444444,13.3703704 C8.44444444,13.758463 8.12883333,14.0740741 7.74074074,14.0740741 C7.35264815,14.0740741 7.03703704,13.758463 7.03703704,13.3703704 L7.03703704,11.2592593 C7.03703704,10.8711667 7.35264815,10.5555556 7.74074074,10.5555556 C8.12883333,10.5555556 8.44444444,10.8711667 8.44444444,11.2592593 L8.44444444,13.3703704 Z" id="Shape"></path>
        </g>
    </g>
</svg>